<?xml version="1.0" encoding="utf-8"?>
<!-- Generator: Adobe Illustrator 23.0.3, SVG Export Plug-In . SVG Version: 6.00 Build 0)  -->
<svg version="1.1" id="Livello_1" xmlns="http://www.w3.org/2000/svg" xmlns:xlink="http://www.w3.org/1999/xlink" x="0px" y="0px"
	 viewBox="0 0 218.8 66.4" style="enable-background:new 0 0 218.8 66.4;" xml:space="preserve">
<style type="text/css">
	.st0{display:none;}
	.st1{display:inline;fill:#2C3F9B;}
	.st2{fill:none;stroke:#FFFFFF;stroke-width:2;stroke-miterlimit:10;}
	.st3{fill:none;stroke:#FFFFFF;stroke-width:5;stroke-miterlimit:10;}
	.st4{fill:none;stroke:#FFFFFF;stroke-width:5;stroke-linecap:round;stroke-miterlimit:10;}
	.st5{fill:#FFFFFF;}
	.st6{enable-background:new    ;}
	.st7{fill:#FFFFFF;stroke:#FFFFFF;stroke-width:2;stroke-linecap:round;stroke-linejoin:round;stroke-miterlimit:10;}
</style>
<g class="st0">
	<rect x="-6.8" y="-5" class="st1" width="233" height="76.7"/>
</g>
<path class="st2" d="M107.6-8.5"/>
<path class="st2" d="M107.6-8.8"/>
<g>
	<path class="st3" d="M86.8,40"/>
	<path class="st4" d="M120.8,16.9c-9.4-9.4-24.6-9.4-34,0s-9.4,24.6,0,34s24.6,9.4,34,0l41.3-0.1"/>
	<circle class="st5" cx="92" cy="33.9" r="5.5"/>
	<g class="st6">
		<path class="st5" d="M5.3,45.3l5.1-22.5h8.7l5,22.5h-4.6l-0.9-4.1h-7.9l-0.9,4.1H5.3L5.3,45.3z M13.9,26.5l-2.3,10.7h6.1
			l-2.3-10.7H13.9L13.9,26.5z"/>
		<path class="st5" d="M36.2,37.2v-4h6.6v11.7c-3.2,0.5-5.7,0.8-7.7,0.8c-3.5,0-5.9-0.9-7.2-2.8s-2-4.8-2-8.9s0.7-7,2-8.9
			c1.4-1.8,3.7-2.7,7-2.7c2,0,4.3,0.3,6.7,0.7l1.2,0.3L42.7,27c-2.7-0.3-4.8-0.4-6.5-0.4s-2.9,0.2-3.6,0.6c-0.7,0.4-1.2,1.1-1.5,2.2
			c-0.3,1.1-0.5,2.9-0.5,5.5s0.3,4.4,1,5.5c0.6,1,2,1.5,4,1.5l2.8-0.1v-4.4h-2.2V37.2z"/>
		<path class="st5" d="M47,45.3V22.8h4.6v22.5H47L47,45.3z"/>
		<path class="st5" d="M64,45.3h-7.6V22.8H64c1.9,0,3.6,0.2,4.8,0.6c1.3,0.4,2.3,1.1,2.9,2s1.2,2,1.4,3.3c0.3,1.3,0.4,2.9,0.4,5
			c0,2-0.1,3.7-0.4,5.1c-0.3,1.3-0.7,2.5-1.4,3.6c-0.7,1-1.7,1.8-2.9,2.3C67.7,45,66,45.3,64,45.3L64,45.3z M68.9,36.3
			c0-0.7,0.1-1.7,0.1-2.9c0-1.3,0-2.3-0.1-3c-0.1-0.8-0.3-1.4-0.6-2s-0.8-1-1.5-1.3c-0.6-0.3-1.5-0.4-2.6-0.4h-3v14.6h3
			c1.7,0,2.9-0.4,3.6-1.3C68.3,39.3,68.7,38.1,68.9,36.3L68.9,36.3z"/>
	</g>
	<g>
		<path class="st5" d="M140.1,44.9V21.4h4.5v23.5H140.1z"/>
		<path class="st5" d="M149.9,30.1c1.2-1.5,3.2-2.3,5.9-2.3s4.7,0.8,5.9,2.3s1.8,3.7,1.8,6.5c0,5.9-2.6,8.8-7.7,8.8s-7.7-3-7.7-8.8
			C148.1,33.7,148.7,31.6,149.9,30.1z M153.3,40.3c0.4,0.8,1.3,1.2,2.5,1.2s2-0.4,2.5-1.2s0.7-2.1,0.7-3.8s-0.2-3-0.7-3.8
			c-0.5-0.8-1.3-1.2-2.5-1.2s-2,0.4-2.5,1.2c-0.4,0.8-0.7,2-0.7,3.8C152.7,38.2,152.9,39.5,153.3,40.3z"/>
		<path class="st5" d="M182,47.1c0,1.9-0.7,3.3-2.2,4.2s-3.5,1.4-6,1.4s-4.4-0.3-5.8-1c-1.3-0.7-2-1.9-2-3.7c0-1.4,0.8-2.8,2.4-4
			c-0.8-0.5-1.2-1.4-1.2-2.6c0-0.4,0.3-1.2,1-2.2l0.3-0.5c-1.5-1.1-2.3-2.7-2.3-4.8s0.6-3.7,1.9-4.6c1.3-0.9,3-1.4,5.1-1.4
			c0.9,0,1.9,0.1,2.9,0.3l0.5,0.1l5.4-0.1v3.6l-2.5-0.2c0.5,0.7,0.7,1.5,0.7,2.3c0,2.2-0.6,3.8-1.7,4.6s-2.9,1.3-5.4,1.3
			c-0.5,0-1,0-1.4-0.1c-0.2,0.6-0.3,1-0.3,1.4s0.2,0.6,0.6,0.7s1.3,0.2,2.7,0.2c2.8,0,4.7,0.4,5.8,1.1C181.5,43.8,182,45.1,182,47.1
			z M170.4,47.6c0,0.9,1.2,1.4,3.6,1.4s3.6-0.5,3.6-1.7c0-0.6-0.2-1-0.6-1.1s-1.2-0.2-2.6-0.3l-3-0.2
			C170.7,46.2,170.4,46.9,170.4,47.6z M170.7,33.8c0,1.6,0.8,2.5,2.6,2.5c1.7,0,2.6-0.8,2.6-2.5s-0.8-2.5-2.6-2.5
			C171.6,31.3,170.7,32.2,170.7,33.8z"/>
		<path class="st5" d="M184.7,26v-4.6h4.5v4.5L184.7,26L184.7,26z M184.7,44.9V28.1h4.5v16.8C189.2,44.9,184.7,44.9,184.7,44.9z"/>
		<path class="st5" d="M197.9,44.9h-4.5V28.1h4.4V29c1.5-0.9,2.9-1.3,4.2-1.3c2.2,0,3.8,0.6,4.6,2s1.3,3.4,1.3,6.1v9.1h-4.5V36
			c0-1.4-0.1-2.5-0.5-3.2s-1-1-2-1c-0.9,0-1.8,0.1-2.7,0.5l-0.4,0.1L197.9,44.9C197.8,44.9,197.9,44.9,197.9,44.9z"/>
	</g>
	<path class="st7" d="M121.8,45.1c3.7-6.6,4.3-14.8,0.8-22.1l10.3,11.1L121.8,45.1z"/>
	<line class="st4" x1="128.9" y1="34.3" x2="110.2" y2="34.4"/>
	<line class="st4" x1="185.9" y1="50.9" x2="210" y2="50.9"/>
</g>
</svg>
